<svg xmlns="http://www.w3.org/2000/svg" viewBox="0 0 192 192" width="192" height="192">
  <defs>
    <linearGradient id="grad192" x1="0%" y1="0%" x2="100%" y2="100%">
      <stop offset="0%" stop-color="#ea580c"/>
      <stop offset="100%" stop-color="#991b1b"/>
    </linearGradient>
    <linearGradient id="gold192" x1="0%" y1="0%" x2="100%" y2="100%">
      <stop offset="0%" stop-color="#fef08a"/>
      <stop offset="100%" stop-color="#eab308"/>
    </linearGradient>
  </defs>
  <circle cx="96" cy="96" r="92" fill="url(#grad192)" stroke="url(#gold192)" stroke-width="5"/>
  <text x="96" y="48" font-family="serif" font-size="20" font-weight="bold" fill="url(#gold192)" text-anchor="middle">ॐ</text>
  <g transform="translate(96, 102) scale(0.6)">
    <path d="M0,45 C-40,20 -70,-20 -50,-60 C-30,-20 -10,-10 0,45 Z" fill="#fed7aa"/>
    <path d="M0,45 C40,20 70,-20 50,-60 C30,-20 10,-10 0,45 Z" fill="#fed7aa"/>
    <path d="M0,45 C-30,0 -40,-60 0,-85 C40,-60 30,0 0,45 Z" fill="#ffffff"/>
    <path d="M0,25 C-15,10 -20,-20 0,-40 C20,-20 15,10 0,25 Z" fill="url(#gold192)"/>
  </g>
  <text x="96" y="148" font-family="'Segoe UI', Roboto, sans-serif" font-size="14" font-weight="900" fill="#ffffff" text-anchor="middle">
    SSM ERP
  </text>
  <text x="96" y="165" font-family="'Segoe UI', Roboto, sans-serif" font-size="9" font-weight="bold" fill="url(#gold192)" text-anchor="middle" letter-spacing="1">
    विद्या भारती
  </text>
</svg>

